<?xml version="1.0" encoding="UTF-8" standalone="no"?>
<svg
   width="56"
   height="56"
   viewBox="0 0 56 56"
   fill="none"
   version="1.1"
   id="svg4376"
   sodipodi:docname="crown.svg"
   inkscape:version="1.1.2 (b8e25be833, 2022-02-05)"
   xmlns:inkscape="http://www.inkscape.org/namespaces/inkscape"
   xmlns:sodipodi="http://sodipodi.sourceforge.net/DTD/sodipodi-0.dtd"
   xmlns="http://www.w3.org/2000/svg"
   xmlns:svg="http://www.w3.org/2000/svg">
  <sodipodi:namedview
     id="namedview4378"
     pagecolor="#ffffff"
     bordercolor="#666666"
     borderopacity="1.0"
     inkscape:pageshadow="2"
     inkscape:pageopacity="0.0"
     inkscape:pagecheckerboard="0"
     showgrid="false"
     inkscape:zoom="13.964286"
     inkscape:cx="28"
     inkscape:cy="28"
     inkscape:window-width="3840"
     inkscape:window-height="1526"
     inkscape:window-x="2869"
     inkscape:window-y="-11"
     inkscape:window-maximized="1"
     inkscape:current-layer="svg4376" />
  <defs
     id="defs4374">
    <linearGradient
       id="paint0_linear_101_127"
       x1="56"
       y1="56"
       x2="-11"
       y2="4.5"
       gradientUnits="userSpaceOnUse">
      <stop
         stop-color="#F6844B"
         id="stop4369" />
      <stop
         offset="1"
         stop-color="#2C2E59"
         id="stop4371" />
    </linearGradient>
  </defs>
  <g
     id="g6104">
    <rect
       x="0.5"
       y="0.5"
       width="55"
       height="55"
       rx="7.5"
       stroke="url(#paint0_linear_101_127)"
       id="rect4367" />
    <g
       style="fill:none"
       id="g6092"
       transform="translate(10,10)">
      <path
         d="M 29.5632,26.25 H 6.43703 C 6.08371,26.25 5.75363,26.0705 5.55469,25.7703 2.50344,21.1689 2.26937,12.3176 2.25166,11.0036 2.25055,10.9521 2.25,10.9001 2.25,10.8483 2.25,10.2425 2.727,9.75114 3.31606,9.75 h 0.00221 c 0.58795,0 1.06578,0.4891 1.06799,1.094 0,0.0074 2.8e-4,0.0723 0.00277,0.1872 0.09407,3.125 2.59556,5.6371 5.65677,5.6371 3.1207,0 5.6595,-2.6108 5.6595,-5.82 0,-0.6066 0.4784,-1.0983 1.068,-1.0983 h 2.4534 c 0.5899,0 1.068,0.4917 1.068,1.0983 0,3.2092 2.5391,5.82 5.6598,5.82 3.064,0 5.5671,-2.5167 5.657,-5.6456 0.002,-0.1098 0.0025,-0.1713 0.0025,-0.1784 C 31.6162,10.2391 32.0938,9.75 32.682,9.75 h 0.0019 c 0.5891,0.00114 1.0661,0.4925 1.0661,1.0983 0,0.052 -6e-4,0.1038 -0.0014,0.1556 -0.018,1.3137 -0.252,10.1653 -3.303,14.7667 -0.199,0.2999 -0.5293,0.4794 -0.8824,0.4794 z"
         fill="#f79c6e"
         id="path6062" />
      <path
         d="m 32.6837,9.75 c -6e-4,0 -0.0011,0 -0.002,0 -0.5879,0 -1.0658,0.4891 -1.068,1.094 0,0.0074 -3e-4,0.0689 -0.0025,0.1787 -0.0899,3.1287 -2.5931,5.6457 -5.6571,5.6457 -3.1207,0 -5.6596,-2.6109 -5.6596,-5.8201 0,-0.6066 -0.4783,-1.0983 -1.068,-1.0983 H 18 v 16.5 h 11.5629 c 0.3534,0 0.6834,-0.1795 0.8824,-0.4794 3.0513,-4.6015 3.2853,-13.4533 3.303,-14.767 C 33.7494,10.9521 33.75,10.9001 33.75,10.8483 33.7497,10.2425 33.2727,9.75114 32.6837,9.75 Z"
         fill="#f6844b"
         id="path6064" />
      <path
         d="M 18,6 C 15.9323,6 14.25,7.68234 14.25,9.75015 14.25,11.818 15.9323,13.5 18,13.5 c 2.0677,0 3.75,-1.682 3.75,-3.74985 C 21.75,7.68234 20.0677,6 18,6 Z"
         fill="#f6844b"
         id="path6066" />
      <path
         d="m 18,6 v 7.5 c 2.0679,-3e-4 3.75,-1.6823 3.75,-3.75 C 21.75,7.68227 20.0676,6.0003 18,6 Z"
         fill="#f47434"
         id="path6068" />
      <path
         d="M 3.37514,8.25 C 1.5141,8.25 0,9.93227 0,12 0,14.0677 1.5141,15.75 3.37514,15.75 5.23617,15.75 6.75,14.0677 6.75,12 6.75,9.93227 5.23617,8.25 3.37514,8.25 Z"
         fill="#f6844b"
         id="path6070" />
      <path
         d="m 32.6249,8.25 c -1.8611,0 -3.3749,1.68234 -3.3749,3.7502 0,2.0675 1.5138,3.7498 3.3749,3.7498 C 34.4859,15.75 36,14.0677 36,12.0002 36,9.93234 34.4859,8.25 32.6249,8.25 Z"
         fill="#f47434"
         id="path6072" />
      <path
         d="M 29.672,30 H 6.32805 C 5.73261,30 5.25,29.4941 5.25,28.87 V 25.5 h 25.5 v 3.37 c 0,0.6241 -0.4826,1.13 -1.078,1.13 z"
         fill="#f6844b"
         id="path6074" />
      <path
         d="M 18,30 H 29.6719 C 30.2674,30 30.75,29.4941 30.75,28.87 V 25.5 H 18 Z"
         fill="#f47434"
         id="path6076" />
    </g>
  </g>
</svg>
