<?xml version="1.0" encoding="UTF-8" standalone="no"?>
<svg
   width="56"
   height="56"
   viewBox="0 0 56 56"
   fill="none"
   version="1.1"
   id="svg2612"
   sodipodi:docname="key.svg"
   inkscape:version="1.1.2 (b8e25be833, 2022-02-05)"
   xmlns:inkscape="http://www.inkscape.org/namespaces/inkscape"
   xmlns:sodipodi="http://sodipodi.sourceforge.net/DTD/sodipodi-0.dtd"
   xmlns="http://www.w3.org/2000/svg"
   xmlns:svg="http://www.w3.org/2000/svg">
  <sodipodi:namedview
     id="namedview2614"
     pagecolor="#ffffff"
     bordercolor="#666666"
     borderopacity="1.0"
     inkscape:pageshadow="2"
     inkscape:pageopacity="0.0"
     inkscape:pagecheckerboard="0"
     showgrid="false"
     inkscape:zoom="13.964286"
     inkscape:cx="28"
     inkscape:cy="28"
     inkscape:window-width="3840"
     inkscape:window-height="1526"
     inkscape:window-x="2869"
     inkscape:window-y="-11"
     inkscape:window-maximized="1"
     inkscape:current-layer="svg2612" />
  <defs
     id="defs2610">
    <linearGradient
       id="paint0_linear_101_154"
       x1="56"
       y1="56"
       x2="-11"
       y2="4.5"
       gradientUnits="userSpaceOnUse">
      <stop
         stop-color="#3BA7F5"
         id="stop2605" />
      <stop
         offset="1"
         stop-color="#2C2E59"
         id="stop2607" />
    </linearGradient>
    <clipPath
       id="clip0_101_156">
      <rect
         width="32"
         height="32"
         fill="white"
         transform="translate(22.6274) rotate(45)"
         id="rect4308" />
    </clipPath>
  </defs>
  <g
     id="g4335">
    <rect
       x="0.5"
       y="0.5"
       width="55"
       height="55"
       rx="7.5"
       stroke="url(#paint0_linear_101_154)"
       id="rect2603" />
    <g
       style="fill:none"
       id="g4325"
       transform="translate(5.8488331,6.476937)">
      <g
         clip-path="url(#clip0_101_156)"
         id="g4306">
        <path
           d="M 7.51657,27.3155 C 7.35901,27.158 7.26163,26.9405 7.26179,26.7003 l -3e-5,-3.9031 c 0,-0.4805 0.38951,-0.8701 0.87002,-0.87 0.4805,0 0.87002,0.3895 0.87002,0.87 l 3e-5,3.9031 c 0,0.4805 -0.38951,0.87 -0.87002,0.87 -0.24041,0 -0.45784,-0.0974 -0.61524,-0.2548 z"
           fill="#3ba7f5"
           id="path4296" />
        <path
           d="m 11.7592,27.3156 c -0.1574,-0.1575 -0.2616,-0.3684 -0.2748,-0.5953 l -0.2169,-3.6862 c -0.0267,-0.4539 0.3195,-0.8001 0.7733,-0.7734 0.4538,0.0267 0.8434,0.4162 0.8701,0.87 l 0.2168,3.6863 c 0.0267,0.4538 -0.3195,0.8001 -0.7733,0.7734 -0.2269,-0.0132 -0.4378,-0.1174 -0.5952,-0.2748 z"
           fill="#3ba7f5"
           id="path4298" />
        <path
           d="m 13.226,22.7668 c 0,-0.4646 -0.3767,-0.8412 -0.8412,-0.8411 l -4.26337,-10e-5 c -0.22321,0 -0.43715,0.0886 -0.5949,0.2463 -0.15775,0.1578 -0.2465,0.3719 -0.24634,0.5949 l -7e-5,2.8981 5.94608,-3e-4 z"
           fill="#259df4"
           id="path4300" />
        <path
           d="m 37.0736,23.7371 c -0.0062,-0.7673 -0.1851,-1.5226 -0.5205,-2.2108 0.3238,-0.6819 0.49,-1.4342 0.4834,-2.2024 -0.0233,-2.8053 -2.325,-5.1067 -5.1298,-5.1301 -2.0841,-0.0177 -4.1821,1.0433 -6.2359,3.1541 -0.6464,0.6644 -1.1815,1.3261 -1.5675,1.8411 L 9.44136,19.0663 C 8.21089,19.056 7.21835,20.0485 7.22863,21.279 l 0.01175,1.4074 c 0.00182,0.2187 0.00688,0.8243 0.00688,0.8243 l 16.88994,0.141 c 0.3965,0.5243 0.9446,1.1975 1.602,1.8726 2.0901,2.1425 4.2054,3.2407 6.2894,3.2581 2.8053,0.0233 5.0686,-2.24 5.045,-5.0453 z m -5.5235,-2.2535 c 0.005,0.6694 0.307,1.3004 0.8275,1.73 0.1468,0.1213 0.2319,0.2988 0.2336,0.4859 0.0027,0.345 -0.2753,0.623 -0.62,0.6203 -1.1991,-0.0102 -2.7941,-1.4551 -3.9514,-2.8644 1.1335,-1.3903 2.7039,-2.8089 3.9043,-2.7987 0.1662,0.0012 0.3234,0.0676 0.4427,0.1868 0.1194,0.1194 0.1857,0.2767 0.187,0.4441 0.0018,0.1872 -0.0799,0.3623 -0.2245,0.4807 -0.5134,0.4209 -0.8046,1.0464 -0.7992,1.7153 z"
           fill="#1b99f3"
           id="path4302" />
        <path
           d="m 32.3566,23.337 c 0.1449,0.1195 0.2284,0.2949 0.2293,0.4801 0.0015,0.3414 -0.2752,0.6181 -0.6163,0.6167 -1.1875,-0.005 -2.7607,-1.4291 -3.9008,-2.8197 L 7.46296,21.5283 7.46873,22.9195 c 9e-4,0.2165 0.00339,0.8161 0.00339,0.8161 L 24.1955,23.805 c 0.3904,0.5175 0.9303,1.1818 1.5784,1.8475 2.0606,2.1128 4.1506,3.1914 6.2141,3.2 2.7778,0.0115 5.0282,-2.2389 5.0165,-5.0166 -0.0033,-0.7596 -0.177,-1.5068 -0.5064,-2.187 l -4.9536,-0.0206 c 0.0026,0.6627 0.2989,1.2858 0.8121,1.7087 z"
           fill="#3ba7f5"
           id="path4304" />
      </g>
    </g>
  </g>
</svg>
