<?xml version="1.0" encoding="UTF-8" standalone="no"?>
<svg
   width="56"
   height="56"
   viewBox="0 0 56 56"
   fill="none"
   version="1.1"
   id="svg2462"
   sodipodi:docname="star.svg"
   inkscape:version="1.1.2 (b8e25be833, 2022-02-05)"
   xmlns:inkscape="http://www.inkscape.org/namespaces/inkscape"
   xmlns:sodipodi="http://sodipodi.sourceforge.net/DTD/sodipodi-0.dtd"
   xmlns="http://www.w3.org/2000/svg"
   xmlns:svg="http://www.w3.org/2000/svg">
  <sodipodi:namedview
     id="namedview2464"
     pagecolor="#ffffff"
     bordercolor="#666666"
     borderopacity="1.0"
     inkscape:pageshadow="2"
     inkscape:pageopacity="0.0"
     inkscape:pagecheckerboard="0"
     showgrid="false"
     inkscape:zoom="23"
     inkscape:cx="28"
     inkscape:cy="28"
     inkscape:window-width="3840"
     inkscape:window-height="1526"
     inkscape:window-x="2869"
     inkscape:window-y="-11"
     inkscape:window-maximized="1"
     inkscape:current-layer="svg2462" />
  <defs
     id="defs2460">
    <linearGradient
       id="paint0_linear_101_179"
       x1="56"
       y1="56"
       x2="-11"
       y2="4.5"
       gradientUnits="userSpaceOnUse">
      <stop
         stop-color="#3BF5BD"
         id="stop2455" />
      <stop
         offset="1"
         stop-color="#2C2E59"
         id="stop2457" />
    </linearGradient>
  </defs>
  <g
     id="g2577">
    <rect
       x="0.5"
       y="0.5"
       width="55"
       height="55"
       rx="7.5"
       stroke="url(#paint0_linear_101_179)"
       id="rect2453" />
    <g
       style="fill:none"
       id="g2571"
       transform="translate(10.003941,9.665145)">
      <path
         d="m 30.3409,18.7004 c 2.4005,-2.0374 3.6008,-3.0562 3.2829,-4.0165 -0.3179,-0.9604 -1.8889,-1.0618 -5.031,-1.2645 l -3.7793,-0.2439 c -0.9194,-0.0593 -1.3791,-0.089 -1.7305,-0.344 -0.3513,-0.2551 -0.5219,-0.683 -0.8631,-1.5388 L 20.7727,7.66206 c -1.18,-2.9599 -1.7699,-4.43985 -2.7868,-4.43986 -1.0168,0 -1.6068,1.47995 -2.7867,4.43985 l -1.4474,3.63085 c -0.3412,0.8557 -0.5117,1.2836 -0.863,1.5386 -0.3513,0.2551 -0.8109,0.2848 -1.7302,0.3443 l -3.76767,0.2436 c -3.1361,0.2028 -4.70416,0.3042 -5.02239,1.2636 -0.31824,0.9594 0.87835,1.9778 3.27154,4.0147 l 2.94762,2.5088 c 0.69291,0.5897 1.03936,0.8846 1.16955,1.2938 0.13018,0.4092 0.01781,0.85 -0.20694,1.7317 l -0.9649,3.7854 c -0.7888,3.0945 -1.1832,4.6418 -0.35962,5.2398 0.82358,0.598 2.17281,-0.2559 4.87111,-1.9639 l 3.2846,-2.0789 c 0.7797,-0.4936 1.1696,-0.7404 1.6044,-0.7404 0.4349,0 0.8247,0.2468 1.6045,0.7404 l 3.2845,2.0789 c 2.6983,1.7079 4.0475,2.5619 4.8711,1.9639 0.8236,-0.598 0.4292,-2.1453 -0.3596,-5.2398 l -0.9642,-3.7826 c -0.2251,-0.883 -0.3376,-1.3245 -0.207,-1.7341 0.1307,-0.4096 0.478,-0.7045 1.1728,-1.2941 z"
         fill="#3bf5bd"
         id="path2559" />
      <path
         d="m 27.388,21.2066 c -0.6948,0.5896 -1.0422,0.8845 -1.1728,1.2941 -0.1306,0.4096 -0.0181,0.8511 0.207,1.7341 l 0.9642,3.7826 c 0.7888,3.0945 1.1832,4.6418 0.3596,5.2398 -0.8236,0.598 -2.1728,-0.256 -4.8712,-1.9639 l -3.4934,-2.2112 c -0.6824,-0.4319 -1.0236,-0.6479 -1.2095,-0.9857 -0.186,-0.3378 -0.186,-0.7416 -0.186,-1.5492 V 12.5591 c 0,-3.09252 0,-4.63876 0.3724,-5.06327 0.4525,-0.51581 1.1974,-0.6588 1.8087,-0.34722 0.5032,0.25642 1.0757,1.69275 2.2209,4.56539 0.1768,0.4435 0.2652,0.6652 0.4036,0.8388 0.1691,0.2121 0.3927,0.3744 0.6468,0.4696 0.2079,0.0778 0.4461,0.0932 0.9225,0.1239 l 4.2319,0.2731 c 3.1421,0.2027 4.7132,0.3041 5.0311,1.2645 0.3179,0.9603 -0.8824,1.9791 -3.283,4.0165 z"
         fill="#0cf3ad"
         id="path2561" />
    </g>
  </g>
</svg>
