<?xml version="1.0" encoding="UTF-8" standalone="no"?>
<svg
   width="49"
   height="49"
   viewBox="0 0 49 49"
   fill="none"
   version="1.1"
   id="svg2439"
   sodipodi:docname="icon2.svg"
   inkscape:version="1.1.2 (b8e25be833, 2022-02-05)"
   xmlns:inkscape="http://www.inkscape.org/namespaces/inkscape"
   xmlns:sodipodi="http://sodipodi.sourceforge.net/DTD/sodipodi-0.dtd"
   xmlns="http://www.w3.org/2000/svg"
   xmlns:svg="http://www.w3.org/2000/svg">
  <sodipodi:namedview
     id="namedview2441"
     pagecolor="#ffffff"
     bordercolor="#666666"
     borderopacity="1.0"
     inkscape:pageshadow="2"
     inkscape:pageopacity="0.0"
     inkscape:pagecheckerboard="0"
     showgrid="false"
     inkscape:zoom="15.102041"
     inkscape:cx="49.099324"
     inkscape:cy="24.5"
     inkscape:window-width="1708"
     inkscape:window-height="1020"
     inkscape:window-x="4511"
     inkscape:window-y="323"
     inkscape:window-maximized="0"
     inkscape:current-layer="svg2439" />
  <defs
     id="defs2437">
    <linearGradient
       id="paint0_linear_101_11"
       x1="24.7081"
       y1="0.708113"
       x2="24.7081"
       y2="48.7081"
       gradientUnits="userSpaceOnUse">
      <stop
         stop-color="#4DB88D"
         id="stop2432" />
      <stop
         offset="1"
         stop-color="#2C2E59"
         id="stop2434" />
    </linearGradient>
    <linearGradient
       id="paint0_linear_101_27"
       x1="17.2381"
       y1="2.5498"
       x2="17.2381"
       y2="11.9372"
       gradientUnits="userSpaceOnUse">
      <stop
         stop-color="#4DB68D"
         id="stop2559" />
      <stop
         offset="1"
         stop-color="#8CC3AE"
         id="stop2561" />
    </linearGradient>
    <linearGradient
       id="paint1_linear_101_27"
       x1="5.15601"
       y1="0.498169"
       x2="5.15601"
       y2="5.74385"
       gradientUnits="userSpaceOnUse">
      <stop
         stop-color="#4DB68D"
         id="stop2564" />
      <stop
         offset="1"
         stop-color="#8CC3AE"
         id="stop2566" />
    </linearGradient>
    <linearGradient
       id="paint2_linear_101_27"
       x1="6.89262"
       y1="6.58398"
       x2="6.89262"
       y2="23.5018"
       gradientUnits="userSpaceOnUse">
      <stop
         stop-color="#4DB68D"
         id="stop2569" />
      <stop
         offset="1"
         stop-color="#8CC3AE"
         id="stop2571" />
    </linearGradient>
  </defs>
  <g
     id="g2742">
    <circle
       cx="24.7081"
       cy="24.7081"
       r="23.5"
       transform="rotate(119.509 24.7081 24.7081)"
       stroke="url(#paint0_linear_101_11)"
       id="circle2430" />
    <g
       style="fill:none"
       id="g2592"
       transform="translate(12.708051,12.708115)">
      <path
         d="m 13.1425,9.24265 c 0.1434,0 0.2817,0.02306 0.4149,0.06148 L 16.0419,6.25866 C 16.2007,6.064 16.4953,6.02814 16.6874,6.19207 16.8744,6.34831 16.9,6.6275 16.7437,6.81704 l -2.4563,3.01217 c 0.1665,0.23049 0.2664,0.51489 0.2664,0.82219 0,0.5712 -0.3433,1.0656 -0.8325,1.2858 h 9.6384 c 0.3535,0 0.6404,-0.2868 0.6404,-0.6403 V 3.19015 c 0,-0.35347 -0.2869,-0.64035 -0.6404,-0.64035 H 11.1164 c -0.3535,0 -0.6403,0.28688 -0.6403,0.64035 v 5.32251 l 0.5788,0.73256 h 2.0876 z"
         fill="url(#paint0_linear_101_27)"
         id="path2553"
         style="fill:url(#paint0_linear_101_27)" />
      <path
         d="m 5.15601,5.74385 c 1.44855,0 2.62284,-1.17429 2.62284,-2.62284 0,-1.44856 -1.17429,-2.622841 -2.62284,-2.622841 -1.44855,0 -2.62284,1.174281 -2.62284,2.622841 0,1.44855 1.17429,2.62284 2.62284,2.62284 z"
         fill="url(#paint1_linear_101_27)"
         id="path2555"
         style="fill:url(#paint1_linear_101_27)" />
      <path
         d="m 7.84546,22.8615 c 0,0.3535 -0.28687,0.6403 -0.64034,0.6403 H 6.12935 c -0.35347,0 -0.64034,-0.2868 -0.64034,-0.6403 v -5.3687 c 0,-0.1895 -0.15368,-0.3432 -0.34323,-0.3432 -0.18954,0 -0.34322,0.1537 -0.34322,0.3432 v 5.343 c 0,0.3663 -0.29968,0.666 -0.66595,0.666 H 3.08388 c -0.35346,0 -0.64034,-0.2868 -0.64034,-0.6403 L 2.43842,9.90095 c 0,-0.17417 -0.14087,-0.31758 -0.31761,-0.31758 -0.17417,0 -0.31761,0.14087 -0.31761,0.31758 v 4.98445 c 0,0.3534 -0.28687,0.6403 -0.64034,0.6403 H 0.640342 C 0.286873,15.5257 0,15.2388 0,14.8854 V 8.05165 C 0,7.23969 0.658271,6.58398 1.46766,6.58398 h 5.83223 c 0.62495,0 1.21665,0.28688 1.60598,0.7761 l 1.56753,1.97737 0.3304,0.4175 c 0,0 1.4856,1e-5 2.3411,0.00257 0.3535,0 0.6403,0.28688 0.6403,0.64038 v 0.5097 c 0,0.3534 -0.2868,0.6403 -0.6403,0.6403 h -2.7714 c -0.274,0 -0.53273,-0.1255 -0.70178,-0.3407 L 8.50374,9.70626 C 8.44482,9.62942 8.35005,9.58332 8.25272,9.58332 h -0.0794 c -0.17417,0 -0.31759,0.14087 -0.31759,0.31758 z"
         fill="url(#paint2_linear_101_27)"
         id="path2557"
         style="fill:url(#paint2_linear_101_27)" />
    </g>
    <g
       style="fill:none"
       id="g2620"
       transform="translate(39.325676,1.9135137)">
      <circle
         cx="1"
         cy="1"
         r="1"
         fill="#6abc9c"
         id="circle2611" />
    </g>
    <g
       style="fill:none"
       id="g2639"
       transform="translate(4.5621621,29.856757)">
      <circle
         cx="1"
         cy="1"
         r="1"
         fill="#6abc9c"
         id="circle2630" />
    </g>
    <g
       style="fill:none"
       id="g2658"
       transform="translate(43.798649,6.5851355)">
      <circle
         cx="0.5"
         cy="0.5"
         r="0.5"
         fill="#6abc9c"
         id="circle2649" />
    </g>
    <g
       style="fill:none"
       id="g2685"
       transform="translate(40.752703,13.868918)">
      <circle
         cx="0.5"
         cy="0.5"
         r="0.5"
         fill="#6abc9c"
         id="circle2676" />
    </g>
    <g
       style="fill:none"
       id="g2704"
       transform="translate(2.8108105,36.117567)">
      <circle
         cx="0.5"
         cy="0.5"
         r="0.5"
         fill="#6abc9c"
         id="circle2695" />
    </g>
    <g
       style="fill:none"
       id="g2723"
       transform="translate(0.22837805,32.608108)">
      <circle
         cx="0.5"
         cy="0.5"
         r="0.5"
         fill="#6abc9c"
         id="circle2714" />
    </g>
  </g>
</svg>
