<?xml version="1.0" encoding="UTF-8" standalone="no"?>
<svg
   width="49"
   height="49"
   viewBox="0 0 49 49"
   fill="none"
   version="1.1"
   id="svg2879"
   sodipodi:docname="icon3.svg"
   inkscape:version="1.1.2 (b8e25be833, 2022-02-05)"
   xmlns:inkscape="http://www.inkscape.org/namespaces/inkscape"
   xmlns:sodipodi="http://sodipodi.sourceforge.net/DTD/sodipodi-0.dtd"
   xmlns="http://www.w3.org/2000/svg"
   xmlns:svg="http://www.w3.org/2000/svg">
  <sodipodi:namedview
     id="namedview2881"
     pagecolor="#ffffff"
     bordercolor="#666666"
     borderopacity="1.0"
     inkscape:pageshadow="2"
     inkscape:pageopacity="0.0"
     inkscape:pagecheckerboard="0"
     showgrid="false"
     inkscape:zoom="15.959184"
     inkscape:cx="47.778133"
     inkscape:cy="24.5"
     inkscape:window-width="1708"
     inkscape:window-height="1020"
     inkscape:window-x="4389"
     inkscape:window-y="312"
     inkscape:window-maximized="0"
     inkscape:current-layer="svg2879" />
  <defs
     id="defs2877">
    <linearGradient
       id="paint0_linear_101_12"
       x1="24.7081"
       y1="0.708113"
       x2="24.7081"
       y2="48.7081"
       gradientUnits="userSpaceOnUse">
      <stop
         stop-color="#B8A74D"
         id="stop2872" />
      <stop
         offset="1"
         stop-color="#2C2E59"
         id="stop2874" />
    </linearGradient>
    <linearGradient
       id="paint0_linear_101_25"
       x1="9"
       y1="0"
       x2="9"
       y2="20"
       gradientUnits="userSpaceOnUse">
      <stop
         stop-color="#B0A04E"
         id="stop4566" />
      <stop
         offset="1"
         stop-color="#CCC18A"
         id="stop4568" />
    </linearGradient>
  </defs>
  <g
     id="g4736">
    <circle
       cx="24.7081"
       cy="24.7081"
       r="23.5"
       transform="rotate(119.509 24.7081 24.7081)"
       stroke="url(#paint0_linear_101_12)"
       id="circle2870" />
    <g
       style="fill:none"
       id="g4581"
       transform="translate(15.708101,14.7081)">
      <path
         d="M 3.012,16 H 18 V 2 C 18,0.897 17.103,0 16,0 H 3 C 1.794,0 0,0.799 0,3 v 14 c 0,2.201 1.794,3 3,3 H 18 V 18 H 3.012 C 2.55,17.988 2,17.806 2,17 2,16.899 2.009,16.809 2.024,16.727 2.136,16.151 2.608,16.01 3.012,16 Z M 5.648,5.642 C 6.06423,5.23107 6.62559,5.00065 7.2105,5.00065 c 0.58491,0 1.14627,0.23042 1.5625,0.64135 L 8.997,5.861 9.22,5.642 c 0.4164,-0.411 0.9779,-0.64144 1.563,-0.64144 0.5851,0 1.1466,0.23044 1.563,0.64144 0.2066,0.19865 0.3709,0.43695 0.4831,0.70063 0.1123,0.26367 0.1701,0.5473 0.1701,0.83387 0,0.28657 -0.0578,0.5702 -0.1701,0.83387 C 12.7169,8.27405 12.5526,8.51235 12.346,8.711 L 8.998,12 5.649,8.711 C 5.44226,8.51249 5.27775,8.27427 5.16534,8.01062 5.05293,7.74697 4.99494,7.46333 4.99484,7.17671 4.99475,6.8901 5.05256,6.60642 5.16479,6.3427 5.27703,6.07897 5.44139,5.84064 5.648,5.642 Z"
         fill="url(#paint0_linear_101_25)"
         id="path4564"
         style="fill:url(#paint0_linear_101_25)" />
    </g>
    <g
       style="fill:none"
       id="g4603"
       transform="translate(6.3312024,2.4462919)">
      <circle
         cx="1"
         cy="1"
         r="1"
         fill="#bbac64"
         id="circle4594" />
    </g>
    <g
       style="fill:none"
       id="g4622"
       transform="translate(40.292839,35.906649)">
      <circle
         cx="1"
         cy="1"
         r="1"
         fill="#bbac64"
         id="circle4613" />
    </g>
    <g
       style="fill:none"
       id="g4641"
       transform="translate(3.3849109,7.5204601)">
      <circle
         cx="0.5"
         cy="0.5"
         r="0.5"
         fill="#bbac64"
         id="circle4632" />
    </g>
    <g
       style="fill:none"
       id="g4660"
       transform="translate(10.778772,6.5805624)">
      <circle
         cx="0.5"
         cy="0.5"
         r="0.5"
         fill="#bbac64"
         id="circle4651" />
    </g>
    <g
       style="fill:none"
       id="g4679"
       transform="translate(5.5780047,12.533248)">
      <circle
         cx="0.5"
         cy="0.5"
         r="0.5"
         fill="#bbac64"
         id="circle4670" />
    </g>
    <g
       style="fill:none"
       id="g4698"
       transform="translate(37.785166,40.792839)">
      <circle
         cx="0.5"
         cy="0.5"
         r="0.5"
         fill="#bbac64"
         id="circle4689" />
    </g>
    <g
       style="fill:none"
       id="g4717"
       transform="translate(43.361893,41.920716)">
      <circle
         cx="0.5"
         cy="0.5"
         r="0.5"
         fill="#bbac64"
         id="circle4708" />
    </g>
  </g>
</svg>
