<?xml version="1.0" encoding="UTF-8" standalone="no"?>
<!-- Created with Inkscape (http://www.inkscape.org/) -->

<svg
   width="210mm"
   height="297mm"
   viewBox="0 0 210 297"
   version="1.1"
   id="svg5"
   inkscape:version="1.1.2 (b8e25be833, 2022-02-05)"
   sodipodi:docname="рисунок2.svg"
   xmlns:inkscape="http://www.inkscape.org/namespaces/inkscape"
   xmlns:sodipodi="http://sodipodi.sourceforge.net/DTD/sodipodi-0.dtd"
   xmlns="http://www.w3.org/2000/svg"
   xmlns:svg="http://www.w3.org/2000/svg">
  <sodipodi:namedview
     id="namedview7"
     pagecolor="#ffffff"
     bordercolor="#666666"
     borderopacity="1.0"
     inkscape:pageshadow="2"
     inkscape:pageopacity="0.0"
     inkscape:pagecheckerboard="0"
     inkscape:document-units="mm"
     showgrid="false"
     inkscape:zoom="1.3932941"
     inkscape:cx="894.28359"
     inkscape:cy="456.4722"
     inkscape:window-width="3840"
     inkscape:window-height="1526"
     inkscape:window-x="2869"
     inkscape:window-y="-11"
     inkscape:window-maximized="1"
     inkscape:current-layer="layer1" />
  <defs
     id="defs2">
    <linearGradient
       id="paint0_linear_101_403"
       x1="42.4992"
       y1="-17.4356"
       x2="42.4993"
       y2="126.055"
       gradientUnits="userSpaceOnUse">
      <stop
         stop-color="#4C5E9D"
         id="stop2437" />
      <stop
         offset="1"
         stop-color="#171836"
         id="stop2439" />
    </linearGradient>
    <linearGradient
       id="paint1_linear_101_403"
       x1="42.632"
       y1="11.4324"
       x2="42.632"
       y2="101.432"
       gradientUnits="userSpaceOnUse">
      <stop
         stop-color="#3F458D"
         stop-opacity="0.63"
         id="stop2442" />
      <stop
         offset="1"
         stop-color="#3F458D"
         stop-opacity="0.14"
         id="stop2444" />
    </linearGradient>
  </defs>
  <g
     inkscape:label="Слой 1"
     inkscape:groupmode="layer"
     id="layer1">
    <g
       id="g2491"
       transform="matrix(8.1526877,0,0,8.5815101,-836.84768,-873.78816)">
      <g
         style="fill:none"
         id="g2460"
         transform="matrix(0.26458333,0,0,0.26458333,102.49322,105.53159)">
        <rect
           x="-1.2265199"
           y="12.2672"
           width="88"
           height="88"
           rx="19"
           transform="rotate(-8.82041,-1.22652,12.2672)"
           fill="url(#paint0_linear_101_403)"
           fill-opacity="0.9"
           stroke="url(#paint1_linear_101_403)"
           stroke-width="2"
           id="rect2435"
           style="fill:url(#paint0_linear_101_403);stroke:url(#paint1_linear_101_403)" />
      </g>
      <g
         style="fill:none"
         id="g2485"
         transform="matrix(0.26458333,0,0,0.26458333,107.56921,110.62199)">
        <path
           d="m 6.40584,12.753 c -0.71744,0.9782 -0.506,2.3529 0.47226,3.0703 l 1.3047,0.9569 c 0.97826,0.7174 2.3529,0.506 3.0703,-0.4723 0.7175,-0.9783 0.506,-2.3529 -0.4722,-3.0704 L 9.47619,12.2807 C 8.49793,11.5633 7.12328,11.7747 6.40584,12.753 Z M 25.5581,1.20952 C 24.3392,1.39701 23.503,2.53716 23.6905,3.7561 l 0.3865,2.51283 c 0.1875,1.21894 1.3277,2.0551 2.5466,1.86761 1.219,-0.18749 2.0551,-1.32763 1.8676,-2.54658 L 28.1047,3.07713 C 27.9172,1.85819 26.7771,1.02203 25.5581,1.20952 Z M 6.21098,35.9701 C 7.42993,35.7826 8.26609,34.6425 8.0786,33.4235 7.89111,32.2046 6.75097,31.3684 5.53202,31.5559 l -2.63846,0.4058 c -1.21895,0.1875 -2.055105,1.3277 -1.86761,2.5466 0.18749,1.219 1.32763,2.0551 2.54657,1.8676 z M 40.001,44.4643 c -0.1901,-1.2363 0.3099,-2.4347 1.1582,-3.2781 1.5316,-1.523 2.72,-3.3098 3.5656,-5.3652 1.0564,-2.5674 1.3677,-5.2682 0.9301,-8.1129 -0.6626,-4.3082 -2.7446,-7.7392 -6.2619,-10.3187 -3.5173,-2.5795 -7.4154,-3.5342 -11.7236,-2.8716 -4.3081,0.6627 -7.7391,2.7447 -10.3186,6.262 -2.5795,3.5173 -3.5343,7.4154 -2.8716,11.7235 0.438,2.8476 1.5273,5.3349 3.2664,7.473 1.3893,1.7081 3.0647,3.0532 5.0297,4.0382 1.0848,0.5437 1.9435,1.5457 2.1365,2.8004 l 0.9646,6.2713 c 0.3778,2.4564 2.6754,4.1414 5.1318,3.7635 l 6.1983,-0.9533 c 2.4564,-0.3779 4.1414,-2.6755 3.7636,-5.1319 z M 51.9106,26.6815 c 0.1875,1.219 1.3276,2.0552 2.5466,1.8677 l 2.6384,-0.4059 c 1.219,-0.1875 2.0551,-1.3276 1.8676,-2.5465 -0.1875,-1.219 -1.3276,-2.0552 -2.5465,-1.8677 l -2.6385,0.4059 c -1.2189,0.1875 -2.0551,1.3276 -1.8676,2.5465 z M 43.2774,8.22655 c -0.7168,0.97738 -0.4934,2.35255 0.496,3.05265 0.9571,0.6772 2.279,0.4712 2.9846,-0.4651 L 47.7317,9.52201 C 48.4626,8.55203 48.2594,7.17169 47.28,6.45343 46.3096,5.74171 44.9459,5.95146 44.2342,6.92192 Z"
           fill="#9da2c8"
           stroke="#6668aa"
           id="path2476" />
      </g>
    </g>
  </g>
</svg>
