<?xml version="1.0" encoding="UTF-8" standalone="no"?>
<!-- Created with Inkscape (http://www.inkscape.org/) -->

<svg
   width="210mm"
   height="297mm"
   viewBox="0 0 210 297"
   version="1.1"
   id="svg5"
   inkscape:version="1.1.2 (b8e25be833, 2022-02-05)"
   sodipodi:docname="rightbook.svg"
   xmlns:inkscape="http://www.inkscape.org/namespaces/inkscape"
   xmlns:sodipodi="http://sodipodi.sourceforge.net/DTD/sodipodi-0.dtd"
   xmlns="http://www.w3.org/2000/svg"
   xmlns:svg="http://www.w3.org/2000/svg">
  <sodipodi:namedview
     id="namedview7"
     pagecolor="#ffffff"
     bordercolor="#666666"
     borderopacity="1.0"
     inkscape:pageshadow="2"
     inkscape:pageopacity="0.0"
     inkscape:pagecheckerboard="0"
     inkscape:document-units="mm"
     showgrid="false"
     inkscape:zoom="1.3932941"
     inkscape:cx="894.28359"
     inkscape:cy="601.45236"
     inkscape:window-width="3840"
     inkscape:window-height="1526"
     inkscape:window-x="2869"
     inkscape:window-y="-11"
     inkscape:window-maximized="1"
     inkscape:current-layer="layer1" />
  <defs
     id="defs2">
    <linearGradient
       id="paint0_linear_101_403"
       x1="42.4992"
       y1="-17.4356"
       x2="42.4993"
       y2="126.055"
       gradientUnits="userSpaceOnUse">
      <stop
         stop-color="#4C5E9D"
         id="stop2437" />
      <stop
         offset="1"
         stop-color="#171836"
         id="stop2439" />
    </linearGradient>
    <linearGradient
       id="paint1_linear_101_403"
       x1="42.632"
       y1="11.4324"
       x2="42.632"
       y2="101.432"
       gradientUnits="userSpaceOnUse">
      <stop
         stop-color="#3F458D"
         stop-opacity="0.63"
         id="stop2442" />
      <stop
         offset="1"
         stop-color="#3F458D"
         stop-opacity="0.14"
         id="stop2444" />
    </linearGradient>
    <linearGradient
       id="paint0_linear_101_401"
       x1="60.9467"
       y1="-32.7139"
       x2="60.9467"
       y2="110.777"
       gradientUnits="userSpaceOnUse">
      <stop
         stop-color="#4C5E9D"
         id="stop2623" />
      <stop
         offset="1"
         stop-color="#171836"
         id="stop2625" />
    </linearGradient>
    <linearGradient
       id="paint1_linear_101_401"
       x1="61.0794"
       y1="-3.84595"
       x2="61.0794"
       y2="86.1541"
       gradientUnits="userSpaceOnUse">
      <stop
         stop-color="#3F458D"
         stop-opacity="0.63"
         id="stop2628" />
      <stop
         offset="1"
         stop-color="#3F458D"
         stop-opacity="0.14"
         id="stop2630" />
    </linearGradient>
    <clipPath
       id="clip0_101_406">
      <rect
         width="60"
         height="60"
         fill="white"
         transform="translate(38.59) rotate(40.0283)"
         id="rect2681" />
    </clipPath>
  </defs>
  <g
     inkscape:label="Слой 1"
     inkscape:groupmode="layer"
     id="layer1">
    <g
       style="fill:none"
       id="g2646"
       transform="matrix(2.0906882,0,0,2.0560659,0.47901466,44.557178)">
      <rect
         x="16.8332"
         y="-2.64937"
         width="88"
         height="88"
         rx="19"
         transform="rotate(12.7909,16.8332,-2.64937)"
         fill="url(#paint0_linear_101_401)"
         fill-opacity="0.9"
         stroke="url(#paint1_linear_101_401)"
         stroke-width="2"
         id="rect2621"
         style="fill:url(#paint0_linear_101_401);stroke:url(#paint1_linear_101_401)" />
    </g>
    <g
       style="fill:none"
       id="g2697"
       transform="matrix(2.3877101,0,0,2.1165478,2.6064878,61.703109)">
      <g
         clip-path="url(#clip0_101_406)"
         id="g2679">
        <mask
           id="path-1-inside-1_101_406"
           fill="#ffffff">
          <path
             d="M 59.1098,24.5815 35.486,13.7634 c 0,0 -3.4394,-3.0579 -6.582,0.6837 -1.297,1.5441 -1.5787,3.2701 -1.5787,3.2701 l -5.9148,36.7105 c -0.4722,3.3987 3.6651,4.4974 3.6651,4.4974 l 31.5735,7.9041 -0.1239,-1.555 c 0.6606,-1.1873 2.1345,-3.1754 4.7045,-3.4189 0.0574,-0.0056 0.0993,-0.0439 0.149,-0.0695 l 0.9589,0.3145 z m -22.1239,5.7886 1.1108,-8.3425 17.6937,7.7141 0.3359,7.5632 z m 20.5384,32.2308 c -0.324,0.291 -0.6179,0.5927 -0.8661,0.8984 l -20.5723,-5.3729 20.0224,6.1341 c -0.0816,0.1262 -0.1651,0.2519 -0.234,0.3703 l -26.5041,-6.73 26.0823,7.534 -0.0259,0.0541 -29.4779,-7.6032 c -0.0155,-0.002 -1.404,-0.2978 -2.3659,-1.1058 -0.9505,-0.7983 -1.1327,-1.7839 -0.5597,-3.0142 1.4717,-3.1617 6.6433,-1.3105 6.721,-1.282 l 29.737,8.8836 c -0.3977,0.1557 -0.7515,0.3568 -1.0867,0.5723 L 39.0745,56.8277 Z"
             id="path2672" />
        </mask>
        <path
           d="M 59.1098,24.5815 35.486,13.7634 c 0,0 -3.4394,-3.0579 -6.582,0.6837 -1.297,1.5441 -1.5787,3.2701 -1.5787,3.2701 l -5.9148,36.7105 c -0.4722,3.3987 3.6651,4.4974 3.6651,4.4974 l 31.5735,7.9041 -0.1239,-1.555 c 0.6606,-1.1873 2.1345,-3.1754 4.7045,-3.4189 0.0574,-0.0056 0.0993,-0.0439 0.149,-0.0695 l 0.9589,0.3145 z m -22.1239,5.7886 1.1108,-8.3425 17.6937,7.7141 0.3359,7.5632 z m 20.5384,32.2308 c -0.324,0.291 -0.6179,0.5927 -0.8661,0.8984 l -20.5723,-5.3729 20.0224,6.1341 c -0.0816,0.1262 -0.1651,0.2519 -0.234,0.3703 l -26.5041,-6.73 26.0823,7.534 -0.0259,0.0541 -29.4779,-7.6032 c -0.0155,-0.002 -1.404,-0.2978 -2.3659,-1.1058 -0.9505,-0.7983 -1.1327,-1.7839 -0.5597,-3.0142 1.4717,-3.1617 6.6433,-1.3105 6.721,-1.282 l 29.737,8.8836 c -0.3977,0.1557 -0.7515,0.3568 -1.0867,0.5723 L 39.0745,56.8277 Z"
           fill="#9da2c8"
           id="path2675" />
        <path
           d="m 59.1098,24.5815 0.9963,-0.0858 -0.05,-0.5807 -0.53,-0.2427 z M 35.486,13.7634 l -0.6644,0.7473 0.1119,0.0995 0.1361,0.0624 z m -8.1607,3.9538 -0.987,-0.1611 -3e-4,0.002 z m -5.9148,36.7105 -0.9873,-0.1591 -0.0017,0.0107 -0.0015,0.0108 z m 3.6651,4.4974 -0.2567,0.9665 0.0069,0.0019 0.0069,0.0017 z m 31.5735,7.9041 -0.2428,0.97 1.3503,0.3381 -0.1106,-1.3876 z m -0.1239,-1.555 -0.8739,-0.4861 -0.147,0.2642 0.024,0.3014 z m 4.7045,-3.4189 0.0943,0.9956 0.0038,-4e-4 z m 0.149,-0.0695 0.3116,-0.9502 -0.3978,-0.1305 -0.3721,0.1919 z m 0.9589,0.3145 -0.3116,0.9502 1.4376,0.4715 -0.1297,-1.5074 z M 38.0967,22.0276 38.4963,21.111 37.2805,20.5809 37.1054,21.8956 Z m 17.6937,7.7141 0.999,-0.0443 -0.0276,-0.6231 -0.5717,-0.2492 z m 0.3359,7.5632 -0.3407,0.9402 1.406,0.5094 -0.0663,-1.494 z m 0.5319,26.1944 -0.2527,0.9676 0.6231,0.1627 0.406,-0.5 z m -20.5723,-5.3729 0.2527,-0.9676 -0.5456,1.9237 z m 20.0224,6.1341 0.84,0.5426 0.7177,-1.1113 -1.2648,-0.3875 z m -0.234,0.3703 -0.2461,0.9693 0.7313,0.1857 0.3793,-0.6522 z m -26.5041,-6.73 0.2461,-0.9693 -0.5236,1.93 z m 26.0823,7.534 0.9021,0.4314 0.5092,-1.0647 L 55.73,64.474 Z m -0.0259,0.0541 -0.2498,0.9683 0.7969,0.2056 0.355,-0.7424 z m -29.4779,-7.6032 0.2497,-0.9684 -0.0606,-0.0156 -0.0622,-0.008 z m -2.9256,-4.12 0.9065,0.4222 10e-5,-2e-4 z m 6.721,-1.282 -0.3446,0.9387 0.0289,0.0106 0.0294,0.0088 z m 29.737,8.8836 0.3646,0.9312 2.7032,-1.0584 -2.7816,-0.831 z m -1.0867,0.5723 -0.2558,0.9667 0.4258,0.1127 0.3706,-0.2382 z M 39.0745,56.8277 39.3303,55.8609 38.7758,57.782 Z M 59.5261,23.6723 35.9024,12.8542 35.0696,14.6726 58.6934,25.4907 Z M 35.486,13.7634 c 0.6644,-0.7474 0.664,-0.7477 0.6636,-0.7481 -10e-5,-10e-5 -6e-4,-5e-4 -9e-4,-8e-4 -6e-4,-6e-4 -0.0013,-0.0012 -0.002,-0.0018 -0.0015,-0.0013 -0.0032,-0.0028 -0.0051,-0.0045 -0.0038,-0.0033 -0.0085,-0.0074 -0.014,-0.0121 -0.0111,-0.0095 -0.0256,-0.0218 -0.0434,-0.0366 -0.0356,-0.0294 -0.0847,-0.0689 -0.1462,-0.1158 -0.1228,-0.0935 -0.297,-0.2178 -0.5151,-0.3518 -0.4322,-0.2654 -1.0598,-0.583 -1.8189,-0.7628 -0.7653,-0.1813 -1.6766,-0.2249 -2.6448,0.0784 -0.9715,0.3044 -1.9307,0.9364 -2.821,1.9964 l 1.5315,1.2863 c 0.681,-0.8108 1.3303,-1.1996 1.8875,-1.3742 0.5606,-0.1756 1.0984,-0.1563 1.5858,-0.0408 0.4935,0.1169 0.9222,0.33 1.2331,0.5209 0.1534,0.0942 0.2725,0.1796 0.3501,0.2387 0.0386,0.0294 0.0665,0.052 0.0828,0.0655 0.0082,0.0068 0.0134,0.0112 0.0155,0.013 0.0011,9e-4 0.0014,0.0012 9e-4,8e-4 -3e-4,-2e-4 -7e-4,-6e-4 -0.0013,-0.0012 -4e-4,-3e-4 -7e-4,-6e-4 -0.0011,-10e-4 -2e-4,-1e-4 -6e-4,-5e-4 -7e-4,-5e-4 -4e-4,-4e-4 -7e-4,-7e-4 0.6637,-0.748 z m -7.3478,0.0405 c -0.7414,0.8827 -1.1867,1.8091 -1.4471,2.5083 -0.1309,0.3515 -0.2171,0.6512 -0.2715,0.8677 -0.0272,0.1084 -0.0465,0.1965 -0.0595,0.2603 -0.0066,0.032 -0.0115,0.0579 -0.0151,0.0774 -0.0017,0.0097 -0.0032,0.0178 -0.0043,0.0242 -5e-4,0.0033 -10e-4,0.0061 -0.0014,0.0084 -2e-4,0.0012 -4e-4,0.0023 -6e-4,0.0033 0,5e-4 -10e-5,9e-4 -2e-4,0.0014 0,2e-4 -10e-5,5e-4 -10e-5,6e-4 0,3e-4 -10e-5,6e-4 0.9869,0.1617 0.9869,0.1611 0.9869,0.1613 0.9868,0.1616 0,1e-4 0,4e-4 -10e-5,5e-4 0,3e-4 -10e-5,6e-4 -10e-5,9e-4 -10e-5,6e-4 -2e-4,0.001 -3e-4,0.0014 -10e-5,7e-4 -10e-5,0.001 -10e-5,9e-4 0,-2e-4 3e-4,-0.002 9e-4,-0.0053 0.0012,-0.0065 0.0036,-0.0192 0.0073,-0.0375 0.0075,-0.0365 0.0203,-0.0953 0.0397,-0.1729 0.0391,-0.1554 0.1043,-0.3836 0.206,-0.6567 0.2047,-0.5498 0.5487,-1.2584 1.1043,-1.9199 z m -1.8002,3.7542 -5.9148,36.7105 1.9746,0.3181 5.9147,-36.7105 z m -5.918,36.732 c -0.3069,2.2086 0.9231,3.6557 2.0631,4.4734 0.5692,0.4083 1.1459,0.6865 1.5738,0.862 0.2159,0.0886 0.399,0.1531 0.5311,0.1963 0.0662,0.0216 0.12,0.038 0.1591,0.0495 0.0196,0.0058 0.0356,0.0103 0.0476,0.0137 0.006,0.0017 0.0111,0.0031 0.0151,0.0042 0.0021,5e-4 0.0038,10e-4 0.0053,0.0014 8e-4,2e-4 0.0015,4e-4 0.0021,6e-4 3e-4,1e-4 8e-4,2e-4 9e-4,2e-4 4e-4,1e-4 8e-4,2e-4 0.2575,-0.9663 0.2566,-0.9665 0.257,-0.9664 0.2573,-0.9663 10e-5,0 5e-4,1e-4 7e-4,2e-4 3e-4,10e-5 7e-4,2e-4 9e-4,2e-4 5e-4,2e-4 8e-4,2e-4 8e-4,3e-4 10e-5,0 -8e-4,-3e-4 -0.0026,-8e-4 -0.0035,-10e-4 -0.0107,-0.003 -0.0214,-0.0061 -0.0212,-0.0063 -0.0558,-0.0168 -0.1019,-0.0318 -0.0922,-0.0302 -0.2287,-0.0781 -0.3933,-0.1456 -0.3331,-0.1367 -0.7612,-0.3456 -1.1673,-0.6369 -0.8106,-0.5813 -1.4132,-1.3829 -1.2478,-2.573 z m 4.4127,5.6051 31.5736,7.904 0.4857,-1.9401 -31.5736,-7.904 z m 32.8133,6.8545 -0.124,-1.5549 -1.9937,0.1589 0.124,1.5549 z m -0.247,-0.9893 c 0.6165,-1.1079 1.8645,-2.7143 3.925,-2.9095 l -0.1887,-1.9911 c -3.0793,0.2918 -4.7792,2.6615 -5.484,3.9283 z m 3.9288,-2.9099 c 0.2288,-0.0226 0.3952,-0.1089 0.4708,-0.1516 0.0195,-0.011 0.0359,-0.0209 0.0468,-0.0275 0.0055,-0.0033 0.0104,-0.0064 0.0138,-0.0085 0.0043,-0.0027 0.0055,-0.0034 0.0078,-0.0048 0.0092,-0.0057 -0.0063,0.0043 -0.03,0.0165 L 60.9204,60.897 c -0.0486,0.025 -0.088,0.0494 -0.1024,0.0582 -0.0236,0.0146 -0.0121,0.0074 -0.0025,0.002 0.0279,-0.0158 0.1446,-0.0802 0.3161,-0.0971 z m -0.2608,-0.1145 0.959,0.3145 0.6232,-1.9004 -0.9589,-0.3145 z m 2.2669,-0.7214 -3.2278,-37.5189 -1.9926,0.1715 3.2278,37.5188 z m -25.3568,-31.5125 1.1108,-8.3425 -1.9825,-0.264 -1.1108,8.3425 z M 37.697,22.9443 55.3908,30.6584 56.1901,28.8251 38.4963,21.111 Z m 17.0944,6.8418 0.3359,7.5632 1.998,-0.0888 -0.3359,-7.5631 z m 1.6755,6.5786 -19.1404,-6.9348 -0.6813,1.8804 19.1404,6.9348 z m 0.3892,25.4922 c -0.3548,0.3186 -0.6867,0.658 -0.9742,1.0121 l 1.5527,1.2606 c 0.2089,-0.2573 0.4646,-0.5214 0.7579,-0.7848 z m 0.0548,0.6749 -20.5723,-5.373 -0.5054,1.9351 20.5723,5.373 z M 35.793,59.0825 55.8153,65.2166 56.4012,63.3043 36.3789,57.1702 Z m 19.4752,4.6354 c -0.0703,0.1089 -0.174,0.2653 -0.2583,0.4102 l 1.7289,1.0055 c 0.0534,-0.092 0.1168,-0.1871 0.2095,-0.3305 z M 56.1204,63.6616 29.6163,56.9315 29.1241,58.87 55.6282,65.6001 Z M 29.0927,58.8615 55.175,66.3955 55.73,64.474 29.6477,56.94 Z m 25.4577,6.1418 -0.0259,0.0542 1.8042,0.8629 0.0259,-0.0542 z m 1.126,-0.4827 -29.478,-7.6033 -0.4995,1.9367 29.4779,7.6032 z M 26.0756,56.8937 c 0.0648,0.0083 0.1066,0.0205 0.0384,0.0043 -0.0306,-0.0073 -0.0785,-0.0193 -0.1405,-0.0364 -0.1243,-0.0342 -0.3008,-0.0879 -0.5031,-0.1634 -0.4174,-0.1558 -0.8866,-0.3834 -1.2445,-0.684 l -1.2863,1.5315 c 0.6041,0.5073 1.3101,0.8316 1.8313,1.0262 0.267,0.0996 0.5007,0.1708 0.6711,0.2178 0.0854,0.0236 0.156,0.0413 0.2081,0.0537 0.0144,0.0035 0.103,0.0254 0.1716,0.0342 z m -1.8497,-0.8795 c -0.3396,-0.2852 -0.4696,-0.5383 -0.511,-0.7618 -0.0437,-0.2353 -0.0138,-0.5739 0.2147,-1.0645 l -1.813,-0.8444 c -0.3445,0.7397 -0.51,1.5091 -0.3682,2.2737 0.144,0.7765 0.5803,1.4153 1.1912,1.9285 z m -0.2962,-1.8265 c 0.4636,-0.996 1.5395,-1.3269 2.9288,-1.2605 0.6581,0.0315 1.2904,0.1525 1.7698,0.271 0.4777,0.118 0.7803,0.2276 0.7712,0.2242 l 0.6892,-1.8775 c -0.0731,-0.0268 -1.4974,-0.537 -3.1346,-0.6154 -1.5837,-0.0758 -3.8295,0.2485 -4.8376,2.4142 z m 5.5281,-0.7459 29.7371,8.8837 0.5724,-1.9164 -29.737,-8.8836 z m 29.6587,6.9943 c -0.4821,0.1888 -0.8975,0.4275 -1.2628,0.6623 l 1.0813,1.6824 c 0.3052,-0.1961 0.5975,-0.3597 0.9107,-0.4823 z m -0.4664,0.5368 -19.3198,-5.112 -0.5116,1.9335 19.3199,5.1119 z M 38.7758,57.782 57.2257,63.5552 57.8229,61.6465 39.3731,55.8733 Z"
           fill="#6668aa"
           mask="url(#path-1-inside-1_101_406)"
           id="path2677" />
      </g>
    </g>
  </g>
</svg>
